<?xml version="1.0" encoding="utf-8"?>
<?xml-stylesheet type="text/xsl" href="rss1.xsl"?>
<rss version="2.0" xmlns:atom="http://www.w3.org/2005/Atom" xmlns:content="http://purl.org/rss/1.0/modules/content/" xmlns:dc="http://purl.org/dc/elements/1.1/" xmlns:media="http://search.yahoo.com/mrss/">
<channel>
 <title>Getty</title>
 <link>http://www.gettyimg.com/</link>
 <atom:link href="http://www.gettyimg.com/" rel="self" type="application/rss+xml" />

 
                <item>
                <title><![CDATA[【Albums (lossy)】MP3 - Beyoncé Albums (MP3) | Work in Progress]]></title>
                <link><![CDATA[https://sharemania.us/threads/beyonc%C3%A9-albums-mp3-work-in-progress.246642/]]></link>
                <description><![CDATA[<article>
<blockquote class="messageText SelectQuoteContainer ugc baseHtml">
<img src="https://static.qobuz.com/images/covers/xc/9v/uui32wudi9vxc_600.jpg" class="bbCodeImage LbImage" alt="[​IMG]" data-url="https://static.qobuz.com/images/covers/xc/9v/uui32wudi9vxc_600.jpg" style=""><br>
<div class="bbCodeBlock bbCodeVfcHH HiddenContent">
<div class="attribution type">Hidden Content:</div>
<blockquote>You must either reply or click 'Like' to see the hidden information contained here.</blockquote>
</div><img src="https://static.qobuz.com/images/covers/kc/ab/t8v2gctijabkc_600.jpg" class="bbCodeImage LbImage" alt="[​IMG]" data-url="https://static.qobuz.com/images/covers/kc/ab/t8v2gctijabkc_600.jpg" style=""> <br>
<div class="bbCodeBlock bbCodeVfcHH HiddenContent">
<div class="attribution type">Hidden Content:</div>
<blockquote>You must either reply or click 'Like' to see the hidden information contained here.</blockquote>
</div> (Revised Version)
<div class="messageTextEndMarker">&nbsp;</div>
</blockquote>
</article>]]></description>
                <author><![CDATA[Kweennayy]]></author>
                </item>

                
                <item>
                <title><![CDATA[【Requests】[REQ AUD] - CREEPER (UK) 1st Album and EP]]></title>
                <link><![CDATA[https://sharemania.us/threads/creeper-uk-1st-album-and-ep.246641/]]></link>
                <description><![CDATA[<article>
<blockquote class="messageText SelectQuoteContainer ugc baseHtml">
I really need your help, I've been looking for CREEPER (UK) release in LOSSLESS<br>
<br>
<span style="font-size: 22px"><b>Eternity,In Your Arms (2017)</b></span><br>
<img src="https://getrockmusic.net/uploads/posts/2017-03/1490243763_1490228475_cover.jpg" class="bbCodeImage LbImage" alt="[​IMG]" data-url="https://getrockmusic.net/uploads/posts/2017-03/1490243763_1490228475_cover.jpg" style=""> <br>
<br>
<span style="font-size: 22px"><b>The Stranger (EP) (2016)</b><br>
<b><img src="https://getrockmusic.net/uploads/posts/2020-07/1595186331_cover.jpg" class="bbCodeImage LbImage" alt="[​IMG]" data-url="https://getrockmusic.net/uploads/posts/2020-07/1595186331_cover.jpg" style=""> </b><br>
<br>
<b><span style="font-size: 22px"><b>The Callous Heart (EP) (2015)</b><br>
<b><img src="https://getrockmusic.net/uploads/posts/2020-07/1595186276_cover.jpg" class="bbCodeImage LbImage" alt="[​IMG]" data-url="https://getrockmusic.net/uploads/posts/2020-07/1595186276_cover.jpg" style=""> </b><br>
</span><br>
CREEPER (EP) (2014)</b><br>
<b><img src="https://f4.bcbits.com/img/a2985339246_16.jpg" class="bbCodeImage LbImage" alt="[​IMG]" data-url="https://f4.bcbits.com/img/a2985339246_16.jpg" style=""> </b><br>
<br>
<b>THANK YOU SO MUCH</b></span>
<div class="messageTextEndMarker">&nbsp;</div>
</blockquote>
</article>]]></description>
                <author><![CDATA[juthecreww]]></author>
                </item>

                
                <item>
                <title><![CDATA[【Cinema Center】MOVIE - One Day at Disney (2019) 1080p/2160p Disney+ WEB-DL DDP5.1 Atmos H.264-LAZY]]></title>
                <link><![CDATA[https://sharemania.us/threads/one-day-at-disney-2019-1080p-2160p-disney-web-dl-ddp5-1-atmos-h-264-lazy.246640/]]></link>
                <description><![CDATA[<article>
<blockquote class="messageText SelectQuoteContainer ugc baseHtml">
One Day at Disney:<img src="https://cdn2.broadcasthe.net/tvdb/banners/v4/series/368581/banners/64a30eed59537.jpg" class="bbCodeImage LbImage" alt="[​IMG]" data-url="https://cdn2.broadcasthe.net/tvdb/banners/v4/series/368581/banners/64a30eed59537.jpg" style=""><br>
<br>
<div class="bbCodeBlock bbCodeQuote">
<aside>
<blockquote class="quoteContainer"><div class="quote"><i><b>Synopsis:</b></i><br>
One Day at Disney is a documentary film, produced by Disney Publishing Worldwide and Endeavor Content as an exclusive release streamed on Disney+ beginning December 3, 2019. The feature length film is followed by 52 additional short segments, released as a series of episodes weekly on Disney+.</div><div class="quoteExpand">Click to expand...</div></blockquote>
</aside>
</div>
<div class="ToggleTriggerAnchor bbCodeSpoilerContainer">
<button type="button" class="button bbCodeSpoilerButton ToggleTrigger Tooltip JsOnly" data-target="> .SpoilerTarget"><span>Spoiler: <span class="SpoilerTitle">MediaInfo 1080p</span></span></button>
<div class="SpoilerTarget bbCodeSpoilerText">General<br>
Unique ID : 74616476108659425371813065301208875233 (0x38229C4E331D421DDB9BE615EA4C40E1)<br>
Complete name : One.Day.at.Disney.2019.1080p.DSNP.WEB-DL.DDP5.1.Atmos.H.264-LAZY.mkv<br>
Format : Matroska<br>
Format version : Version 4<br>
File size : 3.81 GiB<br>
Duration : 59 min 3 s<br>
Overall bit rate mode : Variable<br>
Overall bit rate : 9 242 kb/s<br>
Encoded date : UTC 2024-05-26 21:33:21<br>
Writing application : mkvmerge v84.0 ('Sleeper') 64-bit<br>
Writing library : libebml v1.4.5 + libmatroska v1.7.1<br>
<br>
Video<br>
ID : 1<br>
Format : AVC<br>
Format/Info : Advanced Video Codec<br>
Format profile : High@L4<br>
Format settings : CABAC / 4 Ref Frames<br>
Format settings, CABAC : Yes<br>
Format settings, Reference frames : 4 frames<br>
Codec ID : V_MPEG4/ISO/AVC<br>
Duration : 59 min 3 s<br>
Bit rate mode : Variable<br>
Bit rate : 8 467 kb/s<br>
Maximum bit rate : 12.7 Mb/s<br>
Width : 1 920 pixels<br>
Height : 1 080 pixels<br>
Display aspect ratio : 16:9<br>
Frame rate mode : Constant<br>
Frame rate : 23.976 (24000/1001) FPS<br>
Color space : YUV<br>
Chroma subsampling : 4:2:0<br>
Bit depth : 8 bits<br>
Scan type : Progressive<br>
Bits/(Pixel*Frame) : 0.170<br>
Stream size : 3.49 GiB (92%)<br>
Default : Yes<br>
Forced : No<br>
Color range : Limited<br>
Color primaries : BT.709<br>
Transfer characteristics : BT.709<br>
Matrix coefficients : BT.709<br>
<br>
Audio<br>
ID : 2<br>
Format : E-AC-3 JOC<br>
Format/Info : Enhanced AC-3 with Joint Object Coding<br>
Commercial name : Dolby Digital Plus with Dolby Atmos<br>
Codec ID : A_EAC3<br>
Duration : 59 min 3 s<br>
Bit rate mode : Constant<br>
Bit rate : 768 kb/s<br>
Channel(s) : 6 channels<br>
Channel layout : L R C LFE Ls Rs<br>
Sampling rate : 48.0 kHz<br>
Frame rate : 31.250 FPS (1536 SPF)<br>
Compression mode : Lossy<br>
Stream size : 324 MiB (8%)<br>
Language : English<br>
Service kind : Complete Main<br>
Default : Yes<br>
Forced : No<br>
Complexity index : 16<br>
Number of dynamic objects : 15<br>
Bed channel count : 1 channel<br>
Bed channel configuration : LFE<br>
<br>
Text #1<br>
ID : 3<br>
Format : UTF-8<br>
Codec ID : S_TEXT/UTF8<br>
Codec ID/Info : UTF-8 Plain Text<br>
Duration : 58 min 17 s<br>
Bit rate : 114 b/s<br>
Count of elements : 981<br>
Stream size : 48.8 KiB (0%)<br>
Title : SDH<br>
Language : English<br>
Default : No<br>
Forced : No<br>
<br>
Text #2<br>
ID : 4<br>
Format : UTF-8<br>
Codec ID : S_TEXT/UTF8<br>
Codec ID/Info : UTF-8 Plain Text<br>
Duration : 58 min 54 s<br>
Bit rate : 88 b/s<br>
Count of elements : 973<br>
Stream size : 38.2 KiB (0%)<br>
Language : Czech<br>
Default : No<br>
Forced : No<br>
<br>
Text #3<br>
ID : 5<br>
Format : UTF-8<br>
Codec ID : S_TEXT/UTF8<br>
Codec ID/Info : UTF-8 Plain Text<br>
Duration : 58 min 52 s<br>
Bit rate : 99 b/s<br>
Count of elements : 961<br>
Stream size : 43.1 KiB (0%)<br>
Language : Danish<br>
Default : No<br>
Forced : No<br>
<br>
Text #4<br>
ID : 6<br>
Format : UTF-8<br>
Codec ID : S_TEXT/UTF8<br>
Codec ID/Info : UTF-8 Plain Text<br>
Duration : 58 min 52 s<br>
Bit rate : 93 b/s<br>
Count of elements : 962<br>
Stream size : 40.3 KiB (0%)<br>
Language : German<br>
Default : No<br>
Forced : No<br>
<br>
Text #5<br>
ID : 7<br>
Format : UTF-8<br>
Codec ID : S_TEXT/UTF8<br>
Codec ID/Info : UTF-8 Plain Text<br>
Duration : 58 min 54 s<br>
Bit rate : 180 b/s<br>
Count of elements : 975<br>
Stream size : 77.8 KiB (0%)<br>
Language : Greek<br>
Default : No<br>
Forced : No<br>
<br>
Text #6<br>
ID : 8<br>
Format : UTF-8<br>
Codec ID : S_TEXT/UTF8<br>
Codec ID/Info : UTF-8 Plain Text<br>
Duration : 58 min 54 s<br>
Bit rate : 100 b/s<br>
Count of elements : 972<br>
Stream size : 43.3 KiB (0%)<br>
Title : Latin American<br>
Language : Spanish<br>
Default : No<br>
Forced : No<br>
<br>
Text #7<br>
ID : 9<br>
Format : UTF-8<br>
Codec ID : S_TEXT/UTF8<br>
Codec ID/Info : UTF-8 Plain Text<br>
Duration : 58 min 54 s<br>
Bit rate : 106 b/s<br>
Count of elements : 970<br>
Stream size : 46.1 KiB (0%)<br>
Title : European<br>
Language : Spanish<br>
Default : No<br>
Forced : No<br>
<br>
Text #8<br>
ID : 10<br>
Format : UTF-8<br>
Codec ID : S_TEXT/UTF8<br>
Codec ID/Info : UTF-8 Plain Text<br>
Duration : 58 min 54 s<br>
Bit rate : 93 b/s<br>
Count of elements : 971<br>
Stream size : 40.3 KiB (0%)<br>
Language : Finnish<br>
Default : No<br>
Forced : No<br>
<br>
Text #9<br>
ID : 11<br>
Format : UTF-8<br>
Codec ID : S_TEXT/UTF8<br>
Codec ID/Info : UTF-8 Plain Text<br>
Duration : 58 min 54 s<br>
Bit rate : 114 b/s<br>
Count of elements : 975<br>
Stream size : 49.2 KiB (0%)<br>
Language : French<br>
Default : No<br>
Forced : No<br>
<br>
Text #10<br>
ID : 12<br>
Format : UTF-8<br>
Codec ID : S_TEXT/UTF8<br>
Codec ID/Info : UTF-8 Plain Text<br>
Duration : 58 min 52 s<br>
Bit rate : 94 b/s<br>
Count of elements : 973<br>
Stream size : 40.8 KiB (0%)<br>
Language : Hungarian<br>
Default : No<br>
Forced : No<br>
<br>
Text #11<br>
ID : 13<br>
Format : UTF-8<br>
Codec ID : S_TEXT/UTF8<br>
Codec ID/Info : UTF-8 Plain Text<br>
Duration : 58 min 54 s<br>
Bit rate : 100 b/s<br>
Count of elements : 972<br>
Stream size : 43.5 KiB (0%)<br>
Language : Italian<br>
Default : No<br>
Forced : No<br>
<br>
Text #12<br>
ID : 14<br>
Format : UTF-8<br>
Codec ID : S_TEXT/UTF8<br>
Codec ID/Info : UTF-8 Plain Text<br>
Duration : 58 min 54 s<br>
Bit rate : 85 b/s<br>
Count of elements : 843<br>
Stream size : 36.9 KiB (0%)<br>
Language : Japanese<br>
Default : No<br>
Forced : No<br>
<br>
Text #13<br>
ID : 15<br>
Format : UTF-8<br>
Codec ID : S_TEXT/UTF8<br>
Codec ID/Info : UTF-8 Plain Text<br>
Duration : 58 min 54 s<br>
Bit rate : 107 b/s<br>
Count of elements : 980<br>
Stream size : 46.5 KiB (0%)<br>
Language : Korean<br>
Default : No<br>
Forced : No<br>
<br>
Text #14<br>
ID : 16<br>
Format : UTF-8<br>
Codec ID : S_TEXT/UTF8<br>
Codec ID/Info : UTF-8 Plain Text<br>
Duration : 58 min 54 s<br>
Bit rate : 89 b/s<br>
Count of elements : 956<br>
Stream size : 38.8 KiB (0%)<br>
Language : Dutch<br>
Default : No<br>
Forced : No<br>
<br>
Text #15<br>
ID : 17<br>
Format : UTF-8<br>
Codec ID : S_TEXT/UTF8<br>
Codec ID/Info : UTF-8 Plain Text<br>
Duration : 58 min 52 s<br>
Bit rate : 91 b/s<br>
Count of elements : 968<br>
Stream size : 39.6 KiB (0%)<br>
Language : Norwegian<br>
Default : No<br>
Forced : No<br>
<br>
Text #16<br>
ID : 18<br>
Format : UTF-8<br>
Codec ID : S_TEXT/UTF8<br>
Codec ID/Info : UTF-8 Plain Text<br>
Duration : 58 min 54 s<br>
Bit rate : 97 b/s<br>
Count of elements : 977<br>
Stream size : 41.9 KiB (0%)<br>
Language : Polish<br>
Default : No<br>
Forced : No<br>
<br>
Text #17<br>
ID : 19<br>
Format : UTF-8<br>
Codec ID : S_TEXT/UTF8<br>
Codec ID/Info : UTF-8 Plain Text<br>
Duration : 58 min 54 s<br>
Bit rate : 102 b/s<br>
Count of elements : 969<br>
Stream size : 44.1 KiB (0%)<br>
Title : Brazilian<br>
Language : Portuguese<br>
Default : No<br>
Forced : No<br>
<br>
Text #18<br>
ID : 20<br>
Format : UTF-8<br>
Codec ID : S_TEXT/UTF8<br>
Codec ID/Info : UTF-8 Plain Text<br>
Duration : 58 min 52 s<br>
Bit rate : 105 b/s<br>
Count of elements : 972<br>
Stream size : 45.7 KiB (0%)<br>
Title : European<br>
Language : Portuguese<br>
Default : No<br>
Forced : No<br>
<br>
Text #19<br>
ID : 21<br>
Format : UTF-8<br>
Codec ID : S_TEXT/UTF8<br>
Codec ID/Info : UTF-8 Plain Text<br>
Duration : 58 min 54 s<br>
Bit rate : 102 b/s<br>
Count of elements : 972<br>
Stream size : 44.1 KiB (0%)<br>
Language : Romanian<br>
Default : No<br>
Forced : No<br>
<br>
Text #20<br>
ID : 22<br>
Format : UTF-8<br>
Codec ID : S_TEXT/UTF8<br>
Codec ID/Info : UTF-8 Plain Text<br>
Duration : 58 min 54 s<br>
Bit rate : 92 b/s<br>
Count of elements : 972<br>
Stream size : 39.9 KiB (0%)<br>
Language : Slovak<br>
Default : No<br>
Forced : No<br>
<br>
Text #21<br>
ID : 23<br>
Format : UTF-8<br>
Codec ID : S_TEXT/UTF8<br>
Codec ID/Info : UTF-8 Plain Text<br>
Duration : 58 min 54 s<br>
Bit rate : 102 b/s<br>
Count of elements : 972<br>
Stream size : 44.2 KiB (0%)<br>
Language : Swedish<br>
Default : No<br>
Forced : No<br>
<br>
Text #22<br>
ID : 24<br>
Format : UTF-8<br>
Codec ID : S_TEXT/UTF8<br>
Codec ID/Info : UTF-8 Plain Text<br>
Duration : 58 min 54 s<br>
Bit rate : 107 b/s<br>
Count of elements : 973<br>
Stream size : 46.4 KiB (0%)<br>
Language : Turkish<br>
Default : No<br>
Forced : No<br>
<br>
Text #23<br>
ID : 25<br>
Format : UTF-8<br>
Codec ID : S_TEXT/UTF8<br>
Codec ID/Info : UTF-8 Plain Text<br>
Duration : 58 min 54 s<br>
Bit rate : 90 b/s<br>
Count of elements : 979<br>
Stream size : 38.9 KiB (0%)<br>
Title : Traditional, Hong Kong<br>
Language : Chinese<br>
Default : No<br>
Forced : No<br>
<br>
Text #24<br>
ID : 26<br>
Format : UTF-8<br>
Codec ID : S_TEXT/UTF8<br>
Codec ID/Info : UTF-8 Plain Text<br>
Duration : 58 min 54 s<br>
Bit rate : 99 b/s<br>
Count of elements : 979<br>
Stream size : 42.9 KiB (0%)<br>
Title : Simplified<br>
Language : Chinese<br>
Default : No<br>
Forced : No<br>
<br>
Text #25<br>
ID : 27<br>
Format : UTF-8<br>
Codec ID : S_TEXT/UTF8<br>
Codec ID/Info : UTF-8 Plain Text<br>
Duration : 58 min 54 s<br>
Bit rate : 92 b/s<br>
Count of elements : 980<br>
Stream size : 39.8 KiB (0%)<br>
Title : Traditional<br>
Language : Chinese<br>
Default : No<br>
Forced : No<br>
<br>
Menu<br>
00:00:00.000 : en:Scene 1<br>
00:02:46.966 : en:Intro<br>
00:03:00.926 : en:intro_end<br>
00:09:55.262 : en:Scene 2<br>
00:21:10.687 : en:Scene 3<br>
00:30:21.947 : en:Scene 4<br>
00:42:37.516 : en:Scene 5<br>
00:50:45.045 : en:Scene 6<br>
00:58:39.006 : en:Credits</div>
</div>
<div class="ToggleTriggerAnchor bbCodeSpoilerContainer">
<button type="button" class="button bbCodeSpoilerButton ToggleTrigger Tooltip JsOnly" data-target="> .SpoilerTarget"><span>Spoiler: <span class="SpoilerTitle">MediaInfo 2160p</span></span></button>
<div class="SpoilerTarget bbCodeSpoilerText">General<br>
Unique ID : 53353071172526340845235216280890756883 (0x28236D8057FB9F00B08D2DFFB375CF13)<br>
Complete name : One.Day.at.Disney.2019.2160p.DSNP.WEB-DL.DDP5.1.Atmos.DV.HDR.H.265-LAZY.mkv<br>
Format : Matroska<br>
Format version : Version 4<br>
File size : 7.12 GiB<br>
Duration : 59 min 3 s<br>
Overall bit rate : 17.3 Mb/s<br>
Encoded date : UTC 2024-05-26 20:00:57<br>
Writing application : mkvmerge v84.0 ('Sleeper') 64-bit<br>
Writing library : libebml v1.4.5 + libmatroska v1.7.1<br>
<br>
Video<br>
ID : 1<br>
Format : HEVC<br>
Format/Info : High Efficiency Video Coding<br>
Format profile : Main 10@L5@High<br>
HDR format : Dolby Vision, Version 1.0, dvhe.08.06, BL+RPU, HDR10 compatible<br>
Codec ID : V_MPEGH/ISO/HEVC<br>
Duration : 59 min 3 s<br>
Bit rate : 16.5 Mb/s<br>
Width : 3 840 pixels<br>
Height : 2 160 pixels<br>
Display aspect ratio : 16:9<br>
Frame rate mode : Constant<br>
Frame rate : 23.976 (24000/1001) FPS<br>
Color space : YUV<br>
Chroma subsampling : 4:2:0<br>
Bit depth : 10 bits<br>
Bits/(Pixel*Frame) : 0.083<br>
Stream size : 6.80 GiB (96%)<br>
Default : Yes<br>
Forced : No<br>
Color range : Limited<br>
Color primaries : BT.2020<br>
Transfer characteristics : PQ<br>
Matrix coefficients : BT.2020 non-constant<br>
<br>
Audio<br>
ID : 2<br>
Format : E-AC-3 JOC<br>
Format/Info : Enhanced AC-3 with Joint Object Coding<br>
Commercial name : Dolby Digital Plus with Dolby Atmos<br>
Codec ID : A_EAC3<br>
Duration : 59 min 3 s<br>
Bit rate mode : Constant<br>
Bit rate : 768 kb/s<br>
Channel(s) : 6 channels<br>
Channel layout : L R C LFE Ls Rs<br>
Sampling rate : 48.0 kHz<br>
Frame rate : 31.250 FPS (1536 SPF)<br>
Compression mode : Lossy<br>
Stream size : 324 MiB (4%)<br>
Language : English<br>
Service kind : Complete Main<br>
Default : Yes<br>
Forced : No<br>
Complexity index : 16<br>
Number of dynamic objects : 15<br>
Bed channel count : 1 channel<br>
Bed channel configuration : LFE<br>
<br>
Text #1<br>
ID : 3<br>
Format : UTF-8<br>
Codec ID : S_TEXT/UTF8<br>
Codec ID/Info : UTF-8 Plain Text<br>
Duration : 58 min 17 s<br>
Bit rate : 114 b/s<br>
Count of elements : 981<br>
Stream size : 48.8 KiB (0%)<br>
Title : SDH<br>
Language : English<br>
Default : No<br>
Forced : No<br>
<br>
Text #2<br>
ID : 4<br>
Format : UTF-8<br>
Codec ID : S_TEXT/UTF8<br>
Codec ID/Info : UTF-8 Plain Text<br>
Duration : 58 min 54 s<br>
Bit rate : 88 b/s<br>
Count of elements : 973<br>
Stream size : 38.2 KiB (0%)<br>
Language : Czech<br>
Default : No<br>
Forced : No<br>
<br>
Text #3<br>
ID : 5<br>
Format : UTF-8<br>
Codec ID : S_TEXT/UTF8<br>
Codec ID/Info : UTF-8 Plain Text<br>
Duration : 58 min 52 s<br>
Bit rate : 99 b/s<br>
Count of elements : 961<br>
Stream size : 43.1 KiB (0%)<br>
Language : Danish<br>
Default : No<br>
Forced : No<br>
<br>
Text #4<br>
ID : 6<br>
Format : UTF-8<br>
Codec ID : S_TEXT/UTF8<br>
Codec ID/Info : UTF-8 Plain Text<br>
Duration : 58 min 52 s<br>
Bit rate : 93 b/s<br>
Count of elements : 962<br>
Stream size : 40.3 KiB (0%)<br>
Language : German<br>
Default : No<br>
Forced : No<br>
<br>
Text #5<br>
ID : 7<br>
Format : UTF-8<br>
Codec ID : S_TEXT/UTF8<br>
Codec ID/Info : UTF-8 Plain Text<br>
Duration : 58 min 54 s<br>
Bit rate : 180 b/s<br>
Count of elements : 975<br>
Stream size : 77.8 KiB (0%)<br>
Language : Greek<br>
Default : No<br>
Forced : No<br>
<br>
Text #6<br>
ID : 8<br>
Format : UTF-8<br>
Codec ID : S_TEXT/UTF8<br>
Codec ID/Info : UTF-8 Plain Text<br>
Duration : 58 min 54 s<br>
Bit rate : 100 b/s<br>
Count of elements : 972<br>
Stream size : 43.3 KiB (0%)<br>
Title : Latin American<br>
Language : Spanish<br>
Default : No<br>
Forced : No<br>
<br>
Text #7<br>
ID : 9<br>
Format : UTF-8<br>
Codec ID : S_TEXT/UTF8<br>
Codec ID/Info : UTF-8 Plain Text<br>
Duration : 58 min 54 s<br>
Bit rate : 106 b/s<br>
Count of elements : 970<br>
Stream size : 46.1 KiB (0%)<br>
Title : European<br>
Language : Spanish<br>
Default : No<br>
Forced : No<br>
<br>
Text #8<br>
ID : 10<br>
Format : UTF-8<br>
Codec ID : S_TEXT/UTF8<br>
Codec ID/Info : UTF-8 Plain Text<br>
Duration : 58 min 54 s<br>
Bit rate : 93 b/s<br>
Count of elements : 971<br>
Stream size : 40.3 KiB (0%)<br>
Language : Finnish<br>
Default : No<br>
Forced : No<br>
<br>
Text #9<br>
ID : 11<br>
Format : UTF-8<br>
Codec ID : S_TEXT/UTF8<br>
Codec ID/Info : UTF-8 Plain Text<br>
Duration : 58 min 54 s<br>
Bit rate : 114 b/s<br>
Count of elements : 975<br>
Stream size : 49.2 KiB (0%)<br>
Language : French<br>
Default : No<br>
Forced : No<br>
<br>
Text #10<br>
ID : 12<br>
Format : UTF-8<br>
Codec ID : S_TEXT/UTF8<br>
Codec ID/Info : UTF-8 Plain Text<br>
Duration : 58 min 52 s<br>
Bit rate : 94 b/s<br>
Count of elements : 973<br>
Stream size : 40.8 KiB (0%)<br>
Language : Hungarian<br>
Default : No<br>
Forced : No<br>
<br>
Text #11<br>
ID : 13<br>
Format : UTF-8<br>
Codec ID : S_TEXT/UTF8<br>
Codec ID/Info : UTF-8 Plain Text<br>
Duration : 58 min 54 s<br>
Bit rate : 100 b/s<br>
Count of elements : 972<br>
Stream size : 43.5 KiB (0%)<br>
Language : Italian<br>
Default : No<br>
Forced : No<br>
<br>
Text #12<br>
ID : 14<br>
Format : UTF-8<br>
Codec ID : S_TEXT/UTF8<br>
Codec ID/Info : UTF-8 Plain Text<br>
Duration : 58 min 54 s<br>
Bit rate : 85 b/s<br>
Count of elements : 843<br>
Stream size : 36.9 KiB (0%)<br>
Language : Japanese<br>
Default : No<br>
Forced : No<br>
<br>
Text #13<br>
ID : 15<br>
Format : UTF-8<br>
Codec ID : S_TEXT/UTF8<br>
Codec ID/Info : UTF-8 Plain Text<br>
Duration : 58 min 54 s<br>
Bit rate : 107 b/s<br>
Count of elements : 980<br>
Stream size : 46.5 KiB (0%)<br>
Language : Korean<br>
Default : No<br>
Forced : No<br>
<br>
Text #14<br>
ID : 16<br>
Format : UTF-8<br>
Codec ID : S_TEXT/UTF8<br>
Codec ID/Info : UTF-8 Plain Text<br>
Duration : 58 min 54 s<br>
Bit rate : 89 b/s<br>
Count of elements : 956<br>
Stream size : 38.8 KiB (0%)<br>
Language : Dutch<br>
Default : No<br>
Forced : No<br>
<br>
Text #15<br>
ID : 17<br>
Format : UTF-8<br>
Codec ID : S_TEXT/UTF8<br>
Codec ID/Info : UTF-8 Plain Text<br>
Duration : 58 min 52 s<br>
Bit rate : 91 b/s<br>
Count of elements : 968<br>
Stream size : 39.6 KiB (0%)<br>
Language : Norwegian<br>
Default : No<br>
Forced : No<br>
<br>
Text #16<br>
ID : 18<br>
Format : UTF-8<br>
Codec ID : S_TEXT/UTF8<br>
Codec ID/Info : UTF-8 Plain Text<br>
Duration : 58 min 54 s<br>
Bit rate : 97 b/s<br>
Count of elements : 977<br>
Stream size : 41.9 KiB (0%)<br>
Language : Polish<br>
Default : No<br>
Forced : No<br>
<br>
Text #17<br>
ID : 19<br>
Format : UTF-8<br>
Codec ID : S_TEXT/UTF8<br>
Codec ID/Info : UTF-8 Plain Text<br>
Duration : 58 min 54 s<br>
Bit rate : 102 b/s<br>
Count of elements : 969<br>
Stream size : 44.1 KiB (0%)<br>
Title : Brazilian<br>
Language : Portuguese<br>
Default : No<br>
Forced : No<br>
<br>
Text #18<br>
ID : 20<br>
Format : UTF-8<br>
Codec ID : S_TEXT/UTF8<br>
Codec ID/Info : UTF-8 Plain Text<br>
Duration : 58 min 52 s<br>
Bit rate : 105 b/s<br>
Count of elements : 972<br>
Stream size : 45.7 KiB (0%)<br>
Title : European<br>
Language : Portuguese<br>
Default : No<br>
Forced : No<br>
<br>
Text #19<br>
ID : 21<br>
Format : UTF-8<br>
Codec ID : S_TEXT/UTF8<br>
Codec ID/Info : UTF-8 Plain Text<br>
Duration : 58 min 54 s<br>
Bit rate : 102 b/s<br>
Count of elements : 972<br>
Stream size : 44.1 KiB (0%)<br>
Language : Romanian<br>
Default : No<br>
Forced : No<br>
<br>
Text #20<br>
ID : 22<br>
Format : UTF-8<br>
Codec ID : S_TEXT/UTF8<br>
Codec ID/Info : UTF-8 Plain Text<br>
Duration : 58 min 54 s<br>
Bit rate : 92 b/s<br>
Count of elements : 972<br>
Stream size : 39.9 KiB (0%)<br>
Language : Slovak<br>
Default : No<br>
Forced : No<br>
<br>
Text #21<br>
ID : 23<br>
Format : UTF-8<br>
Codec ID : S_TEXT/UTF8<br>
Codec ID/Info : UTF-8 Plain Text<br>
Duration : 58 min 54 s<br>
Bit rate : 102 b/s<br>
Count of elements : 972<br>
Stream size : 44.2 KiB (0%)<br>
Language : Swedish<br>
Default : No<br>
Forced : No<br>
<br>
Text #22<br>
ID : 24<br>
Format : UTF-8<br>
Codec ID : S_TEXT/UTF8<br>
Codec ID/Info : UTF-8 Plain Text<br>
Duration : 58 min 54 s<br>
Bit rate : 107 b/s<br>
Count of elements : 973<br>
Stream size : 46.4 KiB (0%)<br>
Language : Turkish<br>
Default : No<br>
Forced : No<br>
<br>
Text #23<br>
ID : 25<br>
Format : UTF-8<br>
Codec ID : S_TEXT/UTF8<br>
Codec ID/Info : UTF-8 Plain Text<br>
Duration : 58 min 54 s<br>
Bit rate : 90 b/s<br>
Count of elements : 979<br>
Stream size : 38.9 KiB (0%)<br>
Title : Traditional, Hong Kong<br>
Language : Chinese<br>
Default : No<br>
Forced : No<br>
<br>
Text #24<br>
ID : 26<br>
Format : UTF-8<br>
Codec ID : S_TEXT/UTF8<br>
Codec ID/Info : UTF-8 Plain Text<br>
Duration : 58 min 54 s<br>
Bit rate : 99 b/s<br>
Count of elements : 979<br>
Stream size : 42.9 KiB (0%)<br>
Title : Simplified<br>
Language : Chinese<br>
Default : No<br>
Forced : No<br>
<br>
Text #25<br>
ID : 27<br>
Format : UTF-8<br>
Codec ID : S_TEXT/UTF8<br>
Codec ID/Info : UTF-8 Plain Text<br>
Duration : 58 min 54 s<br>
Bit rate : 92 b/s<br>
Count of elements : 980<br>
Stream size : 39.8 KiB (0%)<br>
Title : Traditional<br>
Language : Chinese<br>
Default : No<br>
Forced : No<br>
<br>
Menu<br>
00:00:00.000 : en:Scene 1<br>
00:02:46.966 : en:Intro<br>
00:03:00.926 : en:intro_end<br>
00:09:55.262 : en:Scene 2<br>
00:21:10.687 : en:Scene 3<br>
00:30:21.947 : en:Scene 4<br>
00:42:37.516 : en:Scene 5<br>
00:50:45.045 : en:Scene 6<br>
00:58:39.006 : en:Credits</div>
</div><br>
Screenshots:<br>
<img src="https://ptpimg.me/idck17.jpg" class="bbCodeImage LbImage" alt="[​IMG]" data-url="https://ptpimg.me/idck17.jpg" style=""><br>
<img src="https://ptpimg.me/pq28t3.jpg" class="bbCodeImage LbImage" alt="[​IMG]" data-url="https://ptpimg.me/pq28t3.jpg" style=""><br>
<div class="bbCodeBlock bbCodeVfcHH HiddenContent">
<div class="attribution type">Hidden Content:</div>
<blockquote>You must either reply or click 'Like' to see the hidden information contained here.</blockquote>
</div>
<div class="messageTextEndMarker">&nbsp;</div>
</blockquote>
</article>]]></description>
                <author><![CDATA[LazyRips]]></author>
                </item>

                </channel></rss>